<?xml version="1.0" encoding="iso-8859-1"?>
<!-- Generator: Adobe Illustrator 19.0.0, SVG Export Plug-In . SVG Version: 6.00 Build 0)  -->
<svg version="1.1" id="Layer_1" xmlns="http://www.w3.org/2000/svg" xmlns:xlink="http://www.w3.org/1999/xlink" x="0px" y="0px"
	 viewBox="0 0 480.001 480.001" style="enable-background:new 0 0 480.001 480.001;" xml:space="preserve">
<g transform="translate(0 -540.36)">
	<path style="fill:#3A3A3A;" d="M9.628,649.06h460.746c5.333,0,9.627,4.294,9.627,9.627v279.259c0,5.333-4.294,9.627-9.627,9.627
		H9.628c-5.333,0-9.627-4.294-9.627-9.627V658.687C0.001,653.354,4.294,649.06,9.628,649.06z"/>
	<g shape-rendering="auto" image-rendering="auto" color-rendering="auto" color-interpolation="sRGB">
		<path style="fill:#42494F;" d="M92.582,635.754c-6.897,0-12.67,5.472-12.67,12.291s5.773,12.291,12.67,12.291
			c6.897,0,12.67-5.472,12.67-12.291S99.479,635.754,92.582,635.754z"/>
		<path style="fill:#61666C;" d="M92.582,641.812c3.751,0,6.611,2.821,6.611,6.232s-2.86,6.232-6.611,6.232
			s-6.611-2.821-6.611-6.232S88.831,641.812,92.582,641.812z"/>
	</g>
	<path style="fill:#61666C;" d="M369.319,622.229h71.149v39.859h-71.149V622.229z"/>
	<path style="fill:#919193;" d="M105.904,622.229h74.519v39.859h-74.519V622.229z"/>
	<path style="fill:#BCBDBF;" d="M176.53,653.027l41.653-53.554h98.182l40.165,53.554H176.53z"/>
	<path style="fill:#4F4F4F;" d="M9.627,649.059c-5.333,0-9.627,4.294-9.627,9.627v68.051h480v-68.051
		c0-5.333-4.294-9.627-9.627-9.627C470.373,649.059,9.627,649.059,9.627,649.059z"/>
	<path style="fill:#BCBDBF;" d="M9.627,649.059c-5.333,0-9.627,4.294-9.627,9.627v63.328h480v-63.328
		c0-5.333-4.294-9.627-9.627-9.627C470.373,649.059,9.627,649.059,9.627,649.059z"/>
	<path style="fill:#4F4F4F;" d="M70.814,678.579h42.978c1.333,0,2.407,1.073,2.407,2.407v14.487c0,1.333-1.073,2.407-2.407,2.407
		H70.815c-1.333,0-2.407-1.073-2.407-2.407v-14.487C68.408,679.653,69.481,678.579,70.814,678.579z"/>
	<g shape-rendering="auto" image-rendering="auto" color-rendering="auto" color-interpolation="sRGB">
		<path style="fill:#3B3C3D;" d="M149.899,679.116c-5.479,0-10.069,4.35-10.069,9.768s4.59,9.768,10.069,9.768
			c5.479,0,10.069-4.35,10.069-9.768S155.378,679.116,149.899,679.116z M149.899,683.93c2.98,0,5.255,2.245,5.255,4.954
			c0,2.71-2.275,4.954-5.255,4.954c-2.98,0-5.255-2.245-5.255-4.954C144.643,686.174,146.919,683.93,149.899,683.93z"/>
		<path style="fill:#FCD116;" d="M149.899,683.926c2.98,0,5.255,2.245,5.255,4.954c0,2.71-2.275,4.954-5.255,4.954
			c-2.98,0-5.255-2.244-5.255-4.954S146.919,683.926,149.899,683.926z"/>
	</g>
	<g>
		<path style="fill:#61666C;" d="M368.058,683.217h4.413l-1.361,3.204c0.488,0.33,0.842,0.692,1.062,1.086
			c0.225,0.391,0.337,0.855,0.337,1.392c0,0.802-0.295,1.479-0.885,2.032c-0.59,0.549-1.316,0.824-2.179,0.824
			c-0.476,0-0.948-0.09-1.416-0.269v-2.356c0.354,0.22,0.661,0.33,0.922,0.33c0.286,0,0.524-0.102,0.714-0.305
			c0.196-0.203,0.294-0.456,0.294-0.757c0-0.346-0.144-0.621-0.433-0.824c-0.289-0.208-0.675-0.311-1.16-0.311l0.617-1.642h-0.922
			v-2.405L368.058,683.217z"/>
		<path style="fill:#61666C;" d="M376.041,682.973l2.191,0.775l-1.624,4.553c-0.048,0.13-0.072,0.246-0.072,0.348
			c0,0.22,0.082,0.409,0.245,0.568c0.164,0.159,0.357,0.238,0.58,0.238c0.225,0,0.414-0.079,0.568-0.238
			c0.16-0.163,0.241-0.358,0.241-0.586c0-0.228-0.08-0.421-0.241-0.58c-0.154-0.159-0.343-0.238-0.568-0.238
			c-0.051,0-0.13,0.008-0.236,0.024l0.995-2.393c0.863,0.374,1.483,0.806,1.861,1.294c0.382,0.484,0.574,1.086,0.574,1.807
			c0,0.903-0.309,1.664-0.927,2.283c-0.615,0.619-1.369,0.928-2.265,0.928c-0.846,0-1.587-0.309-2.221-0.928
			c-0.631-0.623-0.946-1.349-0.946-2.179c0-0.383,0.149-0.985,0.448-1.807l1.404-3.87L376.041,682.973z"/>
		<path style="fill:#61666C;" d="M389.128,691.548h-2.649l-1.458-1.685l-1.453,1.685h-2.643l2.832-3.076l-2.301-2.588h2.606
			l0.977,1.166l0.995-1.166h2.6l-2.344,2.588L389.128,691.548L389.128,691.548z"/>
		<path style="fill:#61666C;" d="M396.854,687.532h-1.41v4.016h-2.002v-4.016h-0.714v-1.648h0.714v-0.751
			c0-0.834,0.211-1.477,0.634-1.929c0.525-0.562,1.156-0.842,1.892-0.842c0.292,0,0.587,0.069,0.885,0.207v1.746
			c-0.273-0.151-0.507-0.226-0.702-0.226c-0.273,0-0.472,0.104-0.598,0.311c-0.074,0.118-0.111,0.409-0.111,0.873v0.61h1.41
			L396.854,687.532L396.854,687.532z"/>
		<path style="fill:#61666C;" d="M407.218,688.387h-5.823v-0.751h5.823V688.387z M407.218,690.01h-5.823v-0.751h5.823V690.01z"/>
		<path style="fill:#61666C;" d="M416.276,689.626l-0.448,1.086h-0.202v0.836H414.4v-0.836h-2.362v-0.989l2.362-3.876h1.226v3.778
			h0.647H416.276z M414.402,689.626v-1.74l-1.123,1.74H414.402z"/>
		<path style="fill:#61666C;" d="M418.852,690.914c0,0.203-0.071,0.376-0.212,0.519c-0.141,0.142-0.314,0.214-0.519,0.214
			c-0.212,0-0.391-0.071-0.537-0.214c-0.141-0.142-0.212-0.315-0.212-0.519s0.071-0.374,0.212-0.513
			c0.148-0.143,0.327-0.214,0.537-0.214c0.202,0,0.375,0.071,0.519,0.214C418.781,690.539,418.852,690.71,418.852,690.914z"/>
		<path style="fill:#61666C;" d="M423.96,685.848l-0.26,1.013h-1.532l-0.226,0.787c0.594,0,1.062,0.159,1.404,0.476
			c0.346,0.317,0.519,0.763,0.519,1.337c0,0.708-0.256,1.265-0.769,1.672c-0.452,0.358-1.007,0.537-1.666,0.537
			c-0.298,0-0.657-0.061-1.074-0.183v-1.239c0.289,0.126,0.592,0.189,0.909,0.189c0.826,0,1.239-0.305,1.239-0.916
			c0-0.541-0.45-0.844-1.349-0.909c-0.103-0.01-0.229-0.005-0.38,0.014c-0.18,0.016-0.3,0.024-0.361,0.024l0.726-2.802h2.82
			L423.96,685.848z"/>
		<path style="fill:#61666C;" d="M426.811,690.914c0,0.203-0.071,0.376-0.212,0.519c-0.141,0.142-0.314,0.214-0.519,0.214
			c-0.212,0-0.391-0.071-0.537-0.214c-0.141-0.142-0.212-0.315-0.212-0.519s0.071-0.374,0.212-0.513
			c0.148-0.143,0.327-0.214,0.537-0.214c0.202,0,0.375,0.071,0.519,0.214C426.74,690.539,426.811,690.71,426.811,690.914z"/>
		<path style="fill:#61666C;" d="M431.058,691.548h-1.264v-3.51l-0.462,0.281c-0.186,0.106-0.351,0.173-0.494,0.201v-1.312
			c0.565-0.334,0.964-0.787,1.196-1.361h1.025v5.701L431.058,691.548z"/>
		<path style="fill:#61666C;" d="M437.272,689.498c0,0.671-0.206,1.208-0.617,1.611c-0.391,0.374-0.885,0.562-1.483,0.562
			c-0.586,0-1.072-0.191-1.459-0.574c-0.403-0.399-0.604-0.928-0.604-1.587c0-0.37,0.083-0.726,0.25-1.068
			c0.148-0.297,0.406-0.674,0.775-1.129l1.19-1.465h1.587l-1.465,1.801c0.509,0.065,0.924,0.236,1.245,0.513
			C437.079,688.495,437.272,688.94,437.272,689.498L437.272,689.498z M435.935,689.602c0-0.203-0.074-0.376-0.221-0.519
			c-0.148-0.147-0.321-0.22-0.519-0.22c-0.199,0-0.372,0.073-0.518,0.22c-0.148,0.142-0.221,0.315-0.221,0.519
			c0,0.199,0.074,0.372,0.221,0.519c0.148,0.142,0.32,0.214,0.518,0.214c0.199,0,0.372-0.071,0.519-0.214
			C435.862,689.974,435.935,689.801,435.935,689.602z"/>
		<path style="fill:#61666C;" d="M442.558,690.224l-0.586,1.324h-3.65v-0.073l1.99-2.6c0.279-0.37,0.419-0.716,0.419-1.038
			c0-0.309-0.117-0.549-0.351-0.72c-0.215-0.163-0.5-0.244-0.854-0.244c-0.228,0-0.498,0.059-0.812,0.177v-1.227
			c0.379-0.094,0.765-0.141,1.16-0.141c0.667,0,1.208,0.173,1.624,0.519c0.419,0.346,0.629,0.791,0.629,1.337
			c0,0.496-0.163,0.983-0.489,1.459l-0.836,1.227L442.558,690.224L442.558,690.224z"/>
		<path style="fill:#61666C;" d="M450.126,691.548h-1.263v-3.51l-0.462,0.281c-0.186,0.106-0.351,0.173-0.494,0.201v-1.312
			c0.565-0.334,0.964-0.787,1.196-1.361h1.025v5.701L450.126,691.548z"/>
		<path style="fill:#61666C;" d="M453.691,687.801c0,0.203-0.074,0.376-0.221,0.519c-0.148,0.143-0.325,0.214-0.531,0.214
			c-0.209,0-0.386-0.071-0.531-0.214c-0.148-0.143-0.221-0.315-0.221-0.519c0-0.208,0.074-0.385,0.221-0.531
			c0.148-0.146,0.325-0.219,0.531-0.219c0.209,0,0.386,0.073,0.531,0.219C453.617,687.416,453.691,687.593,453.691,687.801z
			 M453.691,690.938c0,0.203-0.074,0.376-0.221,0.519c-0.148,0.143-0.325,0.214-0.531,0.214c-0.209,0-0.386-0.071-0.531-0.214
			c-0.148-0.143-0.221-0.315-0.221-0.519c0-0.208,0.074-0.385,0.221-0.531c0.148-0.147,0.325-0.22,0.531-0.22
			c0.209,0,0.386,0.073,0.531,0.22C453.617,690.554,453.691,690.731,453.691,690.938z"/>
		<path style="fill:#61666C;" d="M459.892,690.224l-0.586,1.324h-3.65v-0.073l1.99-2.6c0.279-0.37,0.419-0.716,0.419-1.038
			c0-0.309-0.117-0.549-0.351-0.72c-0.215-0.163-0.5-0.244-0.854-0.244c-0.228,0-0.498,0.059-0.812,0.177v-1.227
			c0.379-0.094,0.765-0.141,1.16-0.141c0.667,0,1.208,0.173,1.624,0.519c0.419,0.346,0.629,0.791,0.629,1.337
			c0,0.496-0.163,0.983-0.489,1.459l-0.836,1.227L459.892,690.224L459.892,690.224z"/>
		<path style="fill:#61666C;" d="M462.358,687.801c0,0.203-0.074,0.376-0.221,0.519c-0.148,0.143-0.325,0.214-0.531,0.214
			c-0.209,0-0.386-0.071-0.531-0.214c-0.148-0.143-0.221-0.315-0.221-0.519c0-0.208,0.074-0.385,0.221-0.531
			c0.148-0.146,0.325-0.219,0.531-0.219c0.209,0,0.386,0.073,0.531,0.219C462.284,687.416,462.358,687.593,462.358,687.801z
			 M462.358,690.938c0,0.203-0.074,0.376-0.221,0.519c-0.148,0.143-0.325,0.214-0.531,0.214c-0.209,0-0.386-0.071-0.531-0.214
			c-0.148-0.143-0.221-0.315-0.221-0.519c0-0.208,0.074-0.385,0.221-0.531c0.148-0.147,0.325-0.22,0.531-0.22
			c0.209,0,0.386,0.073,0.531,0.22C462.284,690.554,462.358,690.731,462.358,690.938z"/>
		<path style="fill:#61666C;" d="M468.449,687.911c0,0.37-0.083,0.726-0.25,1.068c-0.148,0.297-0.406,0.674-0.775,1.129l-1.19,1.465
			h-1.587l1.465-1.801c-0.509-0.065-0.924-0.236-1.245-0.513c-0.386-0.33-0.579-0.775-0.58-1.337c0-0.671,0.205-1.206,0.616-1.605
			c0.391-0.378,0.885-0.568,1.483-0.568c0.586,0,1.072,0.191,1.458,0.574C468.247,686.727,468.449,687.256,468.449,687.911
			L468.449,687.911z M467.1,687.825c0-0.199-0.074-0.372-0.221-0.519c-0.148-0.146-0.321-0.219-0.519-0.219
			c-0.199,0-0.372,0.073-0.519,0.219c-0.148,0.147-0.221,0.32-0.221,0.519c0,0.199,0.074,0.372,0.221,0.519
			c0.148,0.146,0.321,0.219,0.519,0.219c0.199,0,0.372-0.073,0.519-0.219C467.026,688.198,467.1,688.025,467.1,687.825z"/>
	</g>
	<path style="fill:#4B4C4E;" d="M0,934.923v3.023c0,5.333,4.294,9.627,9.627,9.627h460.746c5.333,0,9.627-4.294,9.627-9.627v-3.023
		C480,934.923,0,934.923,0,934.923z"/>
	<path style="fill:#9BA0A6;" d="M406.491,822.995c0,76.354-61.897,138.252-138.252,138.252h0
		c-76.354,0-138.252-61.897-138.252-138.252c0,0,0,0,0,0c0-76.354,61.897-138.252,138.252-138.252S406.491,746.641,406.491,822.995z
		"/>
	<path style="fill:#61666C;" d="M391.691,822.995c0,68.18-55.271,123.452-123.452,123.452l0,0
		c-68.18,0-123.452-55.271-123.452-123.452l0,0c0-68.18,55.271-123.452,123.452-123.452l0,0
		C336.42,699.544,391.691,754.815,391.691,822.995L391.691,822.995z"/>
	<path style="fill:#42494F;" d="M371.438,822.995c0,56.995-46.204,103.199-103.199,103.199h0
		c-56.995,0-103.199-46.204-103.199-103.199v0c0-56.995,46.204-103.199,103.199-103.199S371.438,766,371.438,822.995z"/>
	<path style="fill:#1A121D;" d="M308.095,822.995c0,22.012-17.844,39.856-39.856,39.856h0c-22.012,0-39.856-17.844-39.856-39.856v0
		c0-22.012,17.844-39.856,39.856-39.856c0,0,0,0,0,0C290.251,783.139,308.095,800.983,308.095,822.995
		C308.095,822.995,308.095,822.995,308.095,822.995z"/>
	<path style="fill:#18130B;" d="M295.774,822.995c0,15.207-12.328,27.535-27.535,27.535c0,0,0,0,0,0
		c-15.207,0-27.535-12.328-27.535-27.535s12.328-27.535,27.535-27.535C283.446,795.46,295.774,807.788,295.774,822.995
		L295.774,822.995z"/>
	<path style="fill:#A19E82;" d="M285.637,826.091c0,4.411-3.576,7.987-7.987,7.987c0,0,0,0,0,0c-4.411,0-7.987-3.576-7.987-7.987
		s3.576-7.987,7.987-7.987C282.061,818.105,285.637,821.68,285.637,826.091L285.637,826.091z"/>
	<path style="fill:#5C5847;" d="M276.095,817.328c0,5.594-4.535,10.129-10.129,10.129h0c-5.594,0-10.129-4.535-10.129-10.129
		c0,0,0,0,0,0c0-5.594,4.535-10.129,10.129-10.129h0C271.56,807.199,276.095,811.734,276.095,817.328
		C276.095,817.328,276.095,817.328,276.095,817.328z"/>
	<path style="fill:#41464B;" d="M268.236,719.797C211.242,719.798,165.04,766,165.039,822.993
		c0.001,56.993,46.203,103.195,103.197,103.196c56.995,0.004,103.202-46.197,103.206-103.192c0-0.002,0-0.003,0-0.005
		c-0.001-56.995-46.206-103.198-103.201-103.197C268.239,719.797,268.237,719.797,268.236,719.797z M268.236,724.084
		c54.626,0,98.909,44.283,98.909,98.91c0,54.626-44.283,98.909-98.909,98.91c-54.626,0-98.91-44.283-98.91-98.91
		C169.326,768.367,213.609,724.084,268.236,724.084L268.236,724.084z"/>
	<path style="fill:#7C8085;" d="M268.236,684.74c-76.352,0.004-138.245,61.901-138.244,138.253
		c-0.001,76.352,61.892,138.249,138.244,138.253c76.354,0.001,138.252-61.896,138.253-138.25c0-0.001,0-0.002,0-0.003
		c0.001-76.354-61.896-138.253-138.25-138.253C268.238,684.74,268.237,684.74,268.236,684.74z M268.236,687.344
		c74.919-0.004,135.655,60.727,135.659,135.646c0,0.001,0,0.002,0,0.004c0.004,74.919-60.727,135.655-135.646,135.659
		c-0.004,0-0.009,0-0.013,0c-74.919-0.001-135.651-60.736-135.65-135.655c0-0.001,0-0.003,0-0.004
		C132.588,748.077,193.319,687.346,268.236,687.344z"/>
	<g>
		<path style="fill:#3B3C3D;" d="M229.007,663.112h-4.951v2.679h4.511v3.444h-4.511v6.262h-4.117v-15.829h9.068L229.007,663.112
			L229.007,663.112z"/>
		<path style="fill:#3B3C3D;" d="M245.301,668.794c0,0.951-0.077,1.763-0.231,2.435c-0.241,1.044-0.813,1.995-1.716,2.853
			c-1.283,1.214-3,1.821-5.149,1.821c-2.188,0-3.896-0.618-5.126-1.855c-0.649-0.649-1.094-1.465-1.334-2.447
			c-0.17-0.696-0.255-1.631-0.255-2.806v-9.127h4.117v8.57c0,0.688,0.016,1.202,0.048,1.542c0.077,1.075,0.568,1.825,1.473,2.25
			c0.371,0.178,0.781,0.267,1.229,0.267c1.005,0,1.763-0.352,2.273-1.055c0.379-0.518,0.568-1.519,0.568-3.004v-8.57h4.116v9.127
			L245.301,668.794z"/>
		<path style="fill:#3B3C3D;" d="M256.41,670.615c0,0.642-0.039,1.167-0.116,1.577c-0.164,0.874-0.631,1.662-1.403,2.366
			c-0.997,0.912-2.215,1.368-3.653,1.368c-1.701,0-3.077-0.781-4.129-2.342l2.69-2.748c0.125,1.028,0.574,1.542,1.345,1.542
			c0.789,0,1.175-0.611,1.159-1.832v-0.87v-10.008h4.117v10.947H256.41z"/>
		<path style="fill:#3B3C3D;" d="M263.855,675.497h-4.116v-15.829h4.116V675.497z"/>
		<path style="fill:#3B3C3D;" d="M276.276,663.112h-4.952v2.679h4.511v3.444h-4.511v6.262h-4.117v-15.829h9.069V663.112
			L276.276,663.112z"/>
		<path style="fill:#3B3C3D;" d="M282.874,675.497h-4.117v-15.829h4.117V675.497z"/>
		<path style="fill:#3B3C3D;" d="M295.282,675.497h-9.057v-15.829h4.117v12.385h4.94V675.497z"/>
		<path style="fill:#3B3C3D;" d="M316.539,675.497h-4.117l-1.171-9.115l-3.827,9.115h-1.635l-3.653-9.115l-1.345,9.115h-4.093
			l2.69-15.829h4.059l3.212,8.442l3.398-8.442h4.094L316.539,675.497L316.539,675.497z"/>
	</g>
</g>
<g>
</g>
<g>
</g>
<g>
</g>
<g>
</g>
<g>
</g>
<g>
</g>
<g>
</g>
<g>
</g>
<g>
</g>
<g>
</g>
<g>
</g>
<g>
</g>
<g>
</g>
<g>
</g>
<g>
</g>
</svg>
